<svg width="20" height="20" viewBox="0 0 20 20" fill="none" xmlns="http://www.w3.org/2000/svg">
<path d="M15 6.66666C15 5.34057 14.4732 4.0688 13.5355 3.13112C12.5979 2.19344 11.3261 1.66666 10 1.66666C8.67392 1.66666 7.40215 2.19344 6.46447 3.13112C5.52678 4.0688 5 5.34057 5 6.66666C5 12.5 2.5 14.1667 2.5 14.1667H17.5C17.5 14.1667 15 12.5 15 6.66666Z" stroke="#2B2B2B" stroke-width="2" stroke-linecap="round" stroke-linejoin="round"/>
<path d="M11.438 17.5C11.2915 17.7526 11.0812 17.9622 10.8282 18.1079C10.5752 18.2537 10.2883 18.3304 9.99635 18.3304C9.70437 18.3304 9.41751 18.2537 9.1645 18.1079C8.91148 17.9622 8.7012 17.7526 8.55469 17.5" stroke="#2B2B2B" stroke-width="2" stroke-linecap="round" stroke-linejoin="round"/>
</svg>
