<svg width="48" height="48" viewBox="0 0 48 48" fill="none" xmlns="http://www.w3.org/2000/svg">
<ellipse cx="23.8292" cy="24.0409" rx="23.8292" ry="23.6202" fill="#007AB9"/>
<path fill-rule="evenodd" clip-rule="evenodd" d="M14.7213 10.5133C12.7728 10.5133 11.498 11.7811 11.498 13.4468C11.498 15.0771 12.7359 16.3815 14.6465 16.3815H14.6835C16.6702 16.3815 17.9054 15.0771 17.9054 13.4468C17.8676 11.7811 16.6702 10.5133 14.7213 10.5133ZM38.0671 25.9415V35.6796H32.3713V26.5941C32.3713 24.3129 31.5489 22.755 29.4866 22.755C27.9128 22.755 26.9778 23.8038 26.5649 24.8194C26.415 25.1824 26.3763 25.6864 26.3763 26.1954V35.6792H20.6801C20.6801 35.6792 20.7565 20.2914 20.6801 18.6986H26.3768V21.1049C26.3714 21.1138 26.365 21.1226 26.3587 21.1313C26.3515 21.1411 26.3444 21.1508 26.339 21.1605H26.3768V21.1049C27.1337 19.9504 28.4837 18.2998 31.5102 18.2998C35.2576 18.2998 38.0671 20.7268 38.0671 25.9415ZM17.5308 35.6796H11.8366V18.6986H17.5308V35.6796Z" fill="#F1F2F2"/>
</svg>
