<svg width="48" height="48" viewBox="0 0 48 48" fill="none" xmlns="http://www.w3.org/2000/svg">
<circle cx="23.8297" cy="23.8292" r="23.8292" fill="#55ACEE"/>
<path d="M38.4258 17.1254C37.4046 17.5782 36.3061 17.8844 35.1541 18.0212C36.3303 17.3165 37.233 16.2015 37.659 14.8706C36.5584 15.5235 35.3389 15.9971 34.0421 16.2524C33.003 15.1459 31.5227 14.4543 29.8835 14.4543C26.7384 14.4543 24.1876 17.0051 24.1876 20.1502C24.1876 20.5966 24.2382 21.0312 24.3359 21.4483C19.6021 21.2109 15.4049 18.9434 12.5954 15.4963C12.1052 16.3374 11.824 17.3165 11.824 18.3602C11.824 20.3358 12.8303 22.08 14.3578 23.1011C13.4246 23.0718 12.5457 22.8157 11.7781 22.3879C11.7777 22.4122 11.7777 22.4364 11.7777 22.4602C11.7777 25.2199 13.7419 27.5218 16.3471 28.0447C15.8696 28.1755 15.3654 28.2448 14.8467 28.2448C14.4789 28.2448 14.1225 28.2095 13.775 28.1433C14.4997 30.4056 16.6028 32.0525 19.0958 32.0988C17.1461 33.6267 14.6904 34.537 12.0211 34.537C11.5623 34.537 11.1078 34.5103 10.6631 34.4572C13.1824 36.0739 16.1771 37.0165 19.3936 37.0165C29.8703 37.0165 35.5997 28.3374 35.5997 20.8099C35.5997 20.5631 35.5942 20.3171 35.5832 20.0733C36.6969 19.2705 37.6624 18.2676 38.4258 17.1254Z" fill="#F1F2F2"/>
</svg>
