<svg width="33" height="33" viewBox="0 0 33 33" fill="none" xmlns="http://www.w3.org/2000/svg">
<circle cx="16.5" cy="16.5" r="16.5" fill="#D9D9D9"/>
<path d="M19.9194 15.301C20.9979 14.4525 21.785 13.289 22.1714 11.9723C22.5578 10.6556 22.5242 9.25125 22.0752 7.95458C21.6263 6.6579 20.7843 5.53339 19.6665 4.7375C18.5487 3.94161 17.2106 3.51392 15.8384 3.51392C14.4663 3.51392 13.1282 3.94161 12.0104 4.7375C10.8926 5.53339 10.0506 6.6579 9.60168 7.95458C9.15274 9.25125 9.11911 10.6556 9.50549 11.9723C9.89186 13.289 10.679 14.4525 11.7574 15.301C9.90953 16.0413 8.29716 17.2692 7.09223 18.8539C5.8873 20.4385 5.13497 22.3204 4.91545 24.299C4.89956 24.4434 4.91228 24.5896 4.95288 24.7291C4.99348 24.8687 5.06116 24.9988 5.15207 25.1122C5.33567 25.3412 5.60271 25.4879 5.89445 25.52C6.18619 25.552 6.47872 25.4669 6.70771 25.2833C6.93669 25.0997 7.08336 24.8327 7.11545 24.541C7.35699 22.3907 8.3823 20.4048 9.99549 18.9626C11.6087 17.5205 13.6966 16.7233 15.8604 16.7233C18.0243 16.7233 20.1122 17.5205 21.7254 18.9626C23.3386 20.4048 24.3639 22.3907 24.6054 24.541C24.6354 24.8113 24.7643 25.0609 24.9675 25.2417C25.1706 25.4225 25.4335 25.5216 25.7054 25.52H25.8264C26.1148 25.4868 26.3783 25.341 26.5597 25.1143C26.741 24.8877 26.8254 24.5986 26.7944 24.31C26.5739 22.3258 25.8175 20.439 24.6064 18.852C23.3953 17.2649 21.7751 16.0374 19.9194 15.301ZM15.8384 14.52C14.9682 14.52 14.1175 14.2619 13.3939 13.7784C12.6704 13.2949 12.1064 12.6078 11.7734 11.8038C11.4404 10.9998 11.3532 10.1151 11.523 9.26156C11.6928 8.40805 12.1118 7.62404 12.7272 7.00869C13.3425 6.39334 14.1265 5.97428 14.9801 5.80451C15.8336 5.63473 16.7183 5.72187 17.5223 6.05489C18.3263 6.38792 19.0134 6.95188 19.4969 7.67545C19.9804 8.39903 20.2384 9.24972 20.2384 10.12C20.2384 11.2869 19.7749 12.4061 18.9497 13.2312C18.1246 14.0564 17.0054 14.52 15.8384 14.52Z" fill="#2B2B2B"/>
</svg>
